<?xml version="1.0" standalone="no"?><!DOCTYPE svg PUBLIC "-//W3C//DTD SVG 1.1//EN" "http://www.w3.org/Graphics/SVG/1.1/DTD/svg11.dtd"><svg t="1498177650979" class="icon" style="" viewBox="0 0 1024 1024" version="1.1" xmlns="http://www.w3.org/2000/svg" p-id="12727" xmlns:xlink="http://www.w3.org/1999/xlink" width="200" height="200"><defs><style type="text/css"></style></defs><path d="M213.52563 512l149.237953 0 0 370.486986c0 40.955784 108.069321 74.096579 149.236929 74.096579 41.24538 0 149.236929-33.140795 149.236929-74.096579L661.237441 512l149.237953 0c30.166043 0 57.418734-18.088984 68.937069-45.728484 2.911306-6.947226 4.66423-14.185071 5.313006-21.422915 2.042519-21.562085-5.531993-43.559075-21.494547-59.477626L661.237441 215.610616c-14.569834-14.46955-130.144082-148.195204-149.236929-148.195204s-134.659933 133.725654-149.236929 148.195204L160.769079 385.370974c-16.033162 15.917528-23.537066 37.914518-21.494547 59.477626 0.649799 7.237845 2.472308 14.475689 5.313006 21.422915C156.106896 493.909993 183.36061 512 213.52563 512z" p-id="12728" fill="#1afa29"></path></svg>